<?xml version="1.0" encoding="utf-8"?>
<!-- Generator: Adobe Illustrator 28.1.0, SVG Export Plug-In . SVG Version: 6.00 Build 0)  -->
<svg version="1.1"
	 id="Layer_1" xmlns:cc="http://creativecommons.org/ns#" xmlns:dc="http://purl.org/dc/elements/1.1/" xmlns:rdf="http://www.w3.org/1999/02/22-rdf-syntax-ns#" xmlns:svg="http://www.w3.org/2000/svg" xmlns:inkscape="http://www.inkscape.org/namespaces/inkscape" xmlns:sodipodi="http://sodipodi.sourceforge.net/DTD/sodipodi-0.dtd"
	 xmlns="http://www.w3.org/2000/svg" xmlns:xlink="http://www.w3.org/1999/xlink" x="0px" y="0px" viewBox="0 0 88 74"
	 style="enable-background:new 0 0 88 74;" xml:space="preserve">
<style type="text/css">
	.st0{fill:#FFFFFF;}
</style>
<g transform="translate(0,-952.36218)">
	<path class="st0" d="M32,952.4c-1.2,0-2.2,0.8-2.7,1.7l-4.2,8.3H10c-5.5,0-10,4.5-10,10v44c0,5.5,4.5,10,10,10h68
		c5.5,0,10-4.5,10-10v-44c0-5.5-4.5-10-10-10H62.9l-4.2-8.3c-0.5-1-1.6-1.7-2.7-1.7H32z M33.9,958.4h20.2l4.2,8.3
		c0.5,1,1.6,1.7,2.7,1.7h17c2.3,0,4,1.7,4,4v44c0,2.3-1.7,4-4,4H10c-2.3,0-4-1.7-4-4v-44c0-2.3,1.7-4,4-4h17c1.1,0,2.2-0.7,2.7-1.7
		L33.9,958.4z M44,973.4c-11.6,0-21,9.4-21,21c0,11.6,9.4,21,21,21c11.6,0,21-9.4,21-21C65,982.8,55.6,973.4,44,973.4z M44,979.4
		c8.3,0,15,6.7,15,15c0,8.3-6.7,15-15,15c-8.3,0-15-6.7-15-15C29,986,35.7,979.4,44,979.4z"/>
</g>
</svg>
