<svg width="317" height="144" viewBox="0 0 317 144" fill="none" xmlns="http://www.w3.org/2000/svg">
<path d="M149.5 144C185.951 144 215.5 114.451 215.5 78C215.5 41.5492 185.951 12 149.5 12C113.049 12 83.5 41.5492 83.5 78C83.5 114.451 113.049 144 149.5 144Z" fill="#F0C9C0" fill-opacity="0.3"/>
<path d="M123.967 62.9107C123.393 64.1159 123.001 64.9482 122.59 65.7708C120.878 69.224 118.497 71.7302 114.243 70.965C109.902 70.1806 107.339 72.2755 105.503 75.8531C104.538 77.7375 103.448 79.5646 102.472 81.4394C101.325 83.6491 101.076 83.7161 99.3936 81.956C98.6 81.1238 98.5044 81.0664 97.0415 80.4924C96.5443 81.2481 97.2423 81.6308 97.5865 82.0708C99.6422 84.7014 101.535 87.4276 102.922 90.4695C103.543 91.8374 104.203 92.9948 103.792 94.8314C103.448 96.3428 104.327 98.3038 104.624 100.083C105.695 106.54 107.483 112.805 110.59 118.621C111.049 119.473 112.12 120.678 111.135 121.309C109.978 122.046 109.529 120.458 109.032 119.664C106.431 115.474 103.476 111.543 100.235 107.841C94.8328 101.671 88.1207 99.1456 79.8787 100.351C76.1019 100.906 72.4016 101.518 69.1602 103.508C65.6703 105.65 62.9261 108.396 63.3851 113.073C63.5859 115.12 63.3755 117.206 63.366 119.272C63.366 120.075 63.1843 120.755 62.2282 120.716C61.3676 120.678 61.3007 119.951 61.3007 119.31C61.3007 115.579 61.5589 111.83 61.3007 108.118C60.9278 102.828 60.1342 97.5672 60.3159 92.2296C60.5262 85.9545 61.9604 79.9185 63.6624 73.9208C63.7962 73.4616 63.9397 73.012 64.0353 72.5433C64.0926 72.2468 64.0831 71.9407 64.1309 71.1659C62.0082 73.9208 61.3963 76.867 60.1533 79.5167C56.4243 87.5137 52.4659 95.3958 47.8094 102.905C45.1131 107.257 43.7171 111.916 44.3577 117.081C44.5585 118.688 44.4438 119.798 42.2447 119.798C41.1164 119.798 39.9117 120.697 38.8694 121.376C34.3277 124.342 29.6139 124.007 24.7758 122.304C22.1082 121.367 19.4118 120.582 16.5051 120.63C11.973 120.716 7.44085 120.63 2.89915 120.621C1.96212 120.621 0.690443 120.821 0.700005 119.482C0.700005 118 2.05774 118.526 2.90871 118.526C6.96278 118.516 11.0264 118.526 15.0805 118.583C18.9051 118.631 22.5767 119.607 26.1622 120.812C29.9868 122.094 33.6202 122.486 37.244 120.248C38.4966 119.473 39.7109 118.507 41.3076 118.421C42.1108 118.373 42.3785 117.818 42.2925 117.081C41.3746 109.151 45.6868 103.058 49.4158 96.7446C53.6706 89.5512 57.2753 82.0325 60.3924 74.2747C61.3198 71.9694 62.3716 69.7214 64.5803 68.3822C66.2727 67.3587 66.0336 65.4647 66.7507 64.0203C69.0168 59.4861 70.2311 59.027 74.5625 61.8967C72.9561 57.0469 74.486 52.2736 73.6159 47.6725C72.9848 44.2958 71.8375 40.986 70.6327 37.7528C68.1085 31.009 68.7013 24.5521 71.6367 18.0761C74.5529 11.6193 78.4349 6.15726 84.9176 2.79969C91.0465 -0.366557 97.3762 -0.643963 103.935 0.953511C113.812 3.34494 121.385 9.60092 128.986 15.8091C130.143 16.7465 131.08 17.9709 132.008 19.1571C133.146 20.6206 134.656 20.678 136.091 20.1328C146.188 16.3352 156.705 17.1865 167.108 17.4926C173.055 17.6648 179.07 23.6051 180.915 29.3924C182.397 34.0222 183.191 38.8146 184.596 43.4731C186.623 50.1691 190.639 54.6267 196.988 57.4869C201.816 59.6583 206.941 61.0166 211.712 63.2072C217.927 66.0578 221.943 71.0319 223.855 77.6227C224.917 81.2768 224.965 85.1222 225.844 88.7859C227.25 94.6784 229.793 99.8534 235.96 102.407C238.944 103.641 241.783 105.363 243.906 107.917C246.182 110.653 247.31 113.886 246.746 117.416C246.248 120.535 247.587 122.199 250.312 123.022C256.565 124.916 262.857 125.289 269.158 123.203C269.674 123.031 270.133 122.687 270.592 122.39C271.644 121.702 272.084 121.214 270.611 120.257C269.387 119.454 267.905 118.334 268.976 116.345C269.837 114.738 271.214 114.355 272.81 114.786C274.13 115.149 274.895 116.268 275.268 117.493C275.621 118.669 275.975 118.698 276.874 118C278.365 116.823 279.962 115.771 281.483 114.632C284.781 112.174 289.486 111.839 293.157 114.613C295.987 116.756 298.014 119.616 300.433 122.122C302.633 124.399 304.688 126.819 307.691 128.187C309.966 129.22 312.07 129.306 314.231 127.996C314.795 127.651 315.579 127.001 316.105 127.843C316.726 128.828 315.722 129.201 315.072 129.603C311.879 131.612 307.758 131.076 304.153 128.12C301.256 125.748 298.798 122.936 296.37 120.094C294.515 117.933 292.536 115.962 289.811 114.747C287.717 113.81 285.9 114.221 284.141 115.13C280.651 116.938 277.543 119.387 274.139 121.376C271.797 122.744 269.904 125.069 267.054 125.767C262.761 126.819 258.439 126.504 254.118 125.91C249.595 125.279 246.048 122.122 241.649 121.099C240.378 120.802 239.173 120.716 237.92 120.678C233.331 120.544 228.665 120.2 224.267 121.682C220.107 123.079 216.12 125.002 212.114 126.8C206.817 129.182 201.367 130.033 195.773 128.244C191.758 126.953 189.836 123.576 188.287 119.894C186.174 114.872 185.39 109.467 183.678 104.349C181.536 97.9403 176.66 93.9227 170.77 91.1486C164.565 88.2311 159.315 91.1869 154.152 94.2862C148.282 97.8064 144.419 103.249 140.432 108.568C137.066 113.054 134.035 117.789 130.296 121.998C129.474 122.916 128.929 124.103 128.365 125.222C127.982 125.977 127.581 126.838 126.682 126.389C125.946 126.016 126.367 125.164 126.615 124.466C129.12 117.416 133.28 111.428 138.309 105.966C141.263 102.761 144.667 99.9778 147.201 96.362C149.075 93.674 149.964 90.7469 150.041 87.5232C150.098 85.1414 150.194 82.7499 150.098 80.3681C149.974 77.1062 147.679 74.9539 144.428 74.8487C143.788 74.8295 143.147 74.7721 142.516 74.8295C133.442 75.6522 126.988 72.2659 123.976 62.9202L123.967 62.9107ZM150.471 94.3245C151.561 94.2192 152.173 93.607 152.861 93.1096C156.179 90.766 159.832 88.9007 163.781 88.1928C168.408 87.3702 172.405 89.599 176.038 92.2487C180.121 95.2332 183.869 98.7151 185.447 103.622C186.977 108.386 187.761 113.37 189.482 118.095C191.509 123.663 193.928 127.049 201.023 127.183C206.893 127.297 211.961 125.126 216.99 122.639C225.586 118.382 234.545 117.961 243.734 120.066C244.9 120.334 244.977 119.76 245.005 119.014C245.101 116.479 244.948 113.944 244.088 111.543C242.739 107.783 239.345 106.205 236.19 104.397C232.92 102.532 229.497 100.963 227.393 97.4907C224.314 92.4113 223.683 86.691 222.699 81.0759C221.475 74.1025 218.224 68.5831 211.894 65.2256C207.324 62.8054 202.208 61.6767 197.447 59.6296C189.664 56.2912 184.73 50.9535 182.406 42.8322C181.068 38.1641 180.379 33.3526 178.687 28.761C176.813 23.6625 171.516 19.3006 165.942 19.358C157.394 19.4536 148.788 18.7362 140.326 20.4867C138.548 20.8502 136.129 20.9172 135.297 22.7059C134.475 24.4852 133.203 25.8244 132.17 27.374C131.061 29.0289 130.153 30.7794 130.574 32.9126C131.147 35.8301 131.061 38.8337 132.056 41.7322C133.92 47.1368 135.67 52.5701 136.483 58.2904C137.114 62.7576 136.703 66.957 134.695 70.898C133.872 72.5146 134.379 72.6964 135.699 72.7346C138.079 72.792 140.479 72.6486 142.851 72.8494C148.827 73.366 151.924 75.767 152.202 82.2047C152.374 86.2988 151.456 90.2686 150.462 94.3149L150.471 94.3245ZM131.377 20.8885C131.052 20.4484 130.889 20.1806 130.679 19.9606C123.881 12.8246 115.964 7.22862 106.852 3.51712C101.449 1.30744 95.6647 0.666541 90.0138 2.4649C83.5407 4.52152 78.5974 8.62521 75.2127 14.6516C70.9387 22.2755 69.5714 30.0046 72.6789 38.4702C74.3712 43.0714 76.1879 47.7203 75.9298 52.8666C75.7672 56.2146 75.3083 59.6392 76.819 62.9107C78.5018 66.5743 81.2268 69.0518 85.2331 71.1754C84.2291 69.0901 82.8332 68.1527 81.7431 66.9761C79.0181 64.0298 78.7695 62.6906 80.4332 59.1035C82.6419 54.3398 86.0554 53.1345 90.7023 55.459C91.3333 55.7746 91.9453 56.3486 92.5954 56.3964C93.8862 56.4921 95.6838 57.1617 96.3435 55.9564C97.0033 54.7702 95.2344 54.1772 94.4121 53.431C94.1826 53.2206 93.9149 53.0388 93.6663 52.8379C89.1151 49.0212 87.4322 43.8079 90.119 38.0207C91.5724 34.8927 94.1157 34.2996 96.9077 36.3945C97.6821 36.978 98.2367 37.7337 98.7817 38.5181C100.101 40.4217 101.708 42.0574 103.591 43.4253C104.222 43.8844 104.911 44.3723 105.178 43.1957C106.058 39.3025 109.022 37.3798 112.206 35.6579C115.151 34.07 115.161 34.0126 114.013 30.9707C113.382 29.2872 113.411 27.6036 115.065 26.494C116.815 25.327 118.105 26.7714 118.823 27.8906C120.486 30.5116 122.226 31.1429 125.344 30.1959C127.227 29.622 127.151 29.1054 126.892 27.7279C126.128 23.6816 127.218 21.9407 131.386 20.8885H131.377ZM113.401 69.0997C118.249 69.3866 119.693 68.3248 121.567 64.0585C123.919 58.7017 123.814 52.8475 125.152 47.2803C126.147 43.1574 125.047 38.6807 126.328 34.4144C127.036 32.0708 126.022 31.2194 123.814 32.1664C121.968 32.9604 120.764 32.2143 119.559 31.1333C118.861 30.502 118.306 29.7081 117.694 28.9811C117.149 28.3306 116.528 27.7758 115.667 28.3402C114.721 28.9619 115.304 29.6315 115.667 30.3777C117.197 33.4961 116.776 34.7683 113.707 36.7006C113.439 36.8728 113.2 37.1119 112.914 37.2267C109.529 38.5946 107.349 41.0339 106.488 44.5732C106.115 46.1228 105.437 46.2376 104.098 45.5776C103.17 45.1184 102.262 44.6688 101.497 43.9705C99.6901 42.2965 98.0742 40.4599 96.6399 38.4416C94.9571 36.0597 93.4464 36.0597 91.8879 38.5276C89.9087 41.6748 90.1764 44.908 91.821 48.1412C92.9874 50.4274 95.0145 51.824 96.9459 53.3545C97.7873 54.0241 98.8869 54.7894 98.5331 56.0425C98.2558 57.0564 97.2041 57.3817 96.2192 57.8121C93.6376 58.96 91.5819 57.7165 89.5262 56.626C86.8872 55.2294 85.3956 55.3824 83.5025 57.5921C81.0643 60.4427 80.6818 63.1115 82.422 65.2064C87.2888 71.0511 93.5038 75.3652 99.4319 80.0046C100.331 80.7029 100.914 80.9229 101.535 79.5454C102.396 77.6132 103.562 75.8052 104.652 73.9782C106.679 70.6206 109.405 68.5066 113.382 69.1092L113.401 69.0997ZM105.073 110.672C104.299 107.085 103.19 103.68 102.998 100.035C102.941 98.9638 102.444 97.8064 102.348 96.6107C102.214 94.9941 101.574 93.6836 99.9673 92.8131C97.8925 91.6843 95.942 90.3069 94.0201 88.9198C89.2298 85.4857 85.3765 80.9994 80.9209 77.1827C77.3257 74.093 73.8836 70.8311 69.1698 69.4058C67.6495 68.9466 66.7221 69.1092 66.3205 70.7832C65.3261 75.0304 64.1309 79.2106 63.2226 83.4961C61.7023 90.7182 62.6393 97.8829 62.6584 105.067C62.6584 105.421 62.7923 105.899 63.0409 106.1C63.4138 106.406 63.7771 106.042 64.0257 105.736C67.1906 101.872 71.3785 100.035 76.207 99.1456C83.5025 97.7968 90.4537 97.7968 96.7642 102.494C99.9004 104.828 102.492 107.659 105.054 110.682L105.073 110.672ZM128.929 35.2179C127.801 37.0641 128.48 39.2068 127.839 41.1295C127.036 43.5209 127.677 45.6158 129.292 47.5098C129.847 48.1603 130.258 48.9447 130.679 49.6908C132.075 52.1683 131.243 54.0241 128.604 54.9328C127.399 55.3442 125.621 55.2102 125.43 57.219C124.99 61.9732 126.453 66.1247 129.598 69.6162C131.434 71.6441 133.079 71.185 133.92 68.5927C135.727 63.035 134.704 57.506 133.442 52.0631C132.132 46.4289 129.417 41.1582 128.939 35.2083L128.929 35.2179ZM100.35 89.9625C99.2215 88.145 98.4471 85.9736 96.9746 84.1657C92.3468 78.5219 86.543 74.2652 80.5575 70.2284C78.3775 68.7553 76.2644 67.2535 74.6581 65.1299C73.5681 63.695 72.4876 61.5714 70.6805 61.7915C68.7587 62.021 68.6439 64.489 67.8599 66.096C67.181 67.5022 67.726 67.8466 68.9212 67.8561C70.671 67.8753 72.086 68.6979 73.5394 69.5301C78.6835 72.4955 82.7949 76.7044 87.0593 80.722C90.7501 84.2039 94.4982 87.5998 98.7913 90.3356C99.1833 90.5843 99.4797 91.0339 100.034 90.8521C100.398 90.7373 100.484 90.4503 100.359 89.9529L100.35 89.9625ZM126.806 53.6606C127.696 53.5267 128.728 53.8711 129.254 52.6945C129.876 51.3074 129.092 50.2552 128.48 49.1934C128.155 48.6386 127.447 47.5194 127.017 48.1412C126.07 49.5378 126.405 51.4509 125.659 53.0484C125.401 53.6032 126.061 53.7563 126.577 53.6893C126.653 53.6797 126.73 53.6702 126.806 53.6606ZM273.241 118.095C273.202 117.187 272.849 116.373 271.845 116.211C271.099 116.086 270.649 116.718 270.63 117.397C270.602 118.516 271.386 119.157 272.37 119.32C273.078 119.434 273.183 118.727 273.241 118.105V118.095Z" fill="black"/>
</svg>
